<svg xmlns="http://www.w3.org/2000/svg" width="24" height="24" fill="#ee3131" viewBox="0 0 24 24">
  <path d="M12 .5C5.65.5.5 5.65.5 12a11.5 11.5 0 0 0 7.86 10.94c.58.11.79-.25.79-.56 0-.27-.01-1-.02-1.96-3.2.69-3.87-1.54-3.87-1.54-.52-1.33-1.27-1.68-1.27-1.68-1.04-.71.08-.7.08-.7 1.15.08 1.76 1.18 1.76 1.18 1.02 1.74 2.68 1.24 3.33.95.1-.74.4-1.24.72-1.53-2.55-.29-5.23-1.28-5.23-5.69 0-1.26.45-2.3 1.18-3.11-.12-.29-.51-1.46.11-3.05 0 0 .96-.31 3.14 1.18a10.9 10.9 0 0 1 5.72 0c2.18-1.49 3.14-1.18 3.14-1.18.62 1.59.23 2.76.11 3.05.73.81 1.18 1.85 1.18 3.11 0 4.42-2.68 5.4-5.24 5.69.41.35.77 1.04.77 2.1 0 1.52-.01 2.75-.01 3.12 0 .31.21.67.79.56A11.5 11.5 0 0 0 23.5 12C23.5 5.65 18.35.5 12 .5z"/>
</svg>