<svg width="100" height="41" viewBox="0 0 100 41" fill="none" xmlns="http://www.w3.org/2000/svg">
<path d="M51 35.5L100 35L92.5 39L88.5 41L55 36L51 35.5Z" fill="#DA1C1C"/>
<path d="M50 35.5L100 35L92.5 39L56.5 36L50 35.5Z" fill="#F23535"/>
<path d="M7.992 0.735992V27.76H20.952L20.136 34H0.119995V0.735992H7.992Z" fill="black"/>
<path d="M45.3862 34H38.8102L38.4742 30.784C36.6182 33.472 34.0422 34.816 30.7462 34.816C28.4102 34.816 26.6342 34.112 25.4182 32.704C24.2342 31.296 23.6422 29.328 23.6422 26.8V8.51199H31.2262V25.84C31.2262 27.088 31.4182 27.968 31.8022 28.48C32.2182 28.96 32.8422 29.2 33.6742 29.2C35.2742 29.2 36.6502 28.208 37.8022 26.224V8.51199H45.3862V34Z" fill="black"/>
<path d="M71.607 26.608C71.607 27.568 71.735 28.272 71.991 28.72C72.279 29.168 72.727 29.504 73.335 29.728L71.751 34.672C70.183 34.544 68.903 34.208 67.911 33.664C66.919 33.088 66.151 32.192 65.607 30.976C63.943 33.536 61.383 34.816 57.927 34.816C55.399 34.816 53.383 34.08 51.879 32.608C50.375 31.136 49.623 29.216 49.623 26.848C49.623 24.064 50.647 21.936 52.695 20.464C54.743 18.992 57.703 18.256 61.575 18.256H64.167V17.152C64.167 15.648 63.847 14.624 63.207 14.08C62.567 13.504 61.447 13.216 59.847 13.216C59.015 13.216 58.007 13.344 56.823 13.6C55.639 13.824 54.423 14.144 53.175 14.56L51.447 9.56799C53.047 8.95999 54.679 8.49599 56.343 8.17599C58.039 7.85599 59.607 7.69599 61.047 7.69599C64.695 7.69599 67.367 8.44799 69.063 9.95199C70.759 11.456 71.607 13.712 71.607 16.72V26.608ZM60.135 29.392C61.863 29.392 63.207 28.576 64.167 26.944V22.432H62.295C60.567 22.432 59.271 22.736 58.407 23.344C57.575 23.952 57.159 24.896 57.159 26.176C57.159 27.2 57.415 28 57.927 28.576C58.471 29.12 59.207 29.392 60.135 29.392Z" fill="black"/>
<path d="M92.5759 7.69599C94.7839 7.69599 96.5119 8.36799 97.7599 9.71199C99.0079 11.056 99.6319 12.944 99.6319 15.376V34H92.0479V16.672C92.0479 15.392 91.8399 14.512 91.4239 14.032C91.0399 13.52 90.4479 13.264 89.6479 13.264C88.1119 13.264 86.6399 14.368 85.2319 16.576V34H77.6479V8.51199H84.2719L84.7999 11.536C85.8879 10.256 87.0559 9.29599 88.3039 8.65599C89.5839 8.01599 91.0079 7.69599 92.5759 7.69599Z" fill="black"/>
</svg>
