<svg xmlns="http://www.w3.org/2000/svg" width="24" height="24" fill="#ee3131" viewBox="0 0 24 24">
  <path d="M12 2a10 10 0 0 0-8.94 14.5L2 22l5.65-1.48A10 10 0 1 0 12 2zm0 18a8 8 0 0 1-4.25-1.22l-.3-.19-3.35.88.9-3.25-.2-.32A8 8 0 1 1 20 12a8 8 0 0 1-8 8zm4.34-5.34c-.23-.12-1.37-.68-1.58-.76s-.37-.12-.53.12-.6.76-.74.92-.27.19-.5.07a6.52 6.52 0 0 1-3.23-2.83c-.09-.16 0-.25.08-.34.08-.08.18-.21.28-.32.09-.11.12-.19.19-.32.06-.13.03-.24-.02-.34-.05-.09-.47-1.14-.65-1.57-.17-.42-.34-.36-.47-.36h-.4c-.13 0-.34.05-.52.25s-.68.66-.68 1.6.7 1.85.8 1.98c.09.13 1.38 2.1 3.34 2.87.47.2.83.32 1.12.41.47.15.9.13 1.24.08.38-.06 1.18-.48 1.35-.95.17-.47.17-.87.12-.95-.05-.09-.2-.14-.43-.25z"/>
</svg>